<?xml version="1.0" encoding="UTF-8" standalone="no"?>
<svg width="27px" height="27px" viewBox="0 0 27 27" version="1.1" xmlns="http://www.w3.org/2000/svg" xmlns:xlink="http://www.w3.org/1999/xlink">
    <!-- Generator: Sketch 49.3 (51167) - http://www.bohemiancoding.com/sketch -->
    <title>add-issue-icon</title>
    <desc>Created with Sketch.</desc>
    <defs></defs>
    <g id="Page-1" stroke="none" stroke-width="1" fill="none" fill-rule="evenodd">
        <g id="Home" transform="translate(-174.000000, -624.000000)" fill="#A1A1A1" stroke="#979797" stroke-width="0.3">
            <g id="Bottom-Bar/Tab-Bar" transform="translate(0.000000, 618.000000)">
                <g id="Icons" transform="translate(25.000000, 7.000000)">
                    <g id="add-issue-icon" transform="translate(150.000000, 0.000000)">
                        <path d="M16.5142119,11.869509 L13.4198966,11.869509 L13.4198966,8.7751938 C13.4198966,8.34883721 13.0710594,8 12.6447028,8 C12.2183463,8 11.869509,8.34883721 11.869509,8.7751938 L11.869509,11.869509 L8.7751938,11.869509 C8.34883721,11.869509 8,12.2183463 8,12.6447028 C8,13.0710594 8.34883721,13.4198966 8.7751938,13.4198966 L11.869509,13.4198966 L11.869509,16.5142119 C11.869509,16.9405685 12.2183463,17.2894057 12.6447028,17.2894057 C13.0710594,17.2894057 13.4198966,16.9405685 13.4198966,16.5142119 L13.4198966,13.4198966 L16.5142119,13.4198966 C16.9405685,13.4198966 17.2894057,13.0710594 17.2894057,12.6447028 C17.2894057,12.2183463 16.9405685,11.869509 16.5142119,11.869509 Z" id="Shape" fill-rule="nonzero"></path>
                        <path d="M21.3404255,3.65957447 C18.9787234,1.29787234 15.8404255,0 12.5,0 C9.15957447,0 6.0212766,1.29787234 3.65957447,3.65957447 C1.29787234,6.0212766 0,9.15957447 0,12.5 C0,15.8404255 1.29787234,18.9787234 3.65957447,21.3404255 C6.0212766,23.7021277 9.15957447,25 12.5,25 C15.8404255,25 18.9787234,23.7021277 21.3404255,21.3404255 C23.7021277,18.9787234 25,15.8404255 25,12.5 C25,9.15957447 23.7021277,6.0212766 21.3404255,3.65957447 L21.3404255,3.65957447 Z M12.5,23.7234043 C6.31382979,23.7234043 1.27659574,18.6861702 1.27659574,12.5 C1.27659574,6.31382979 6.31382979,1.27659574 12.5,1.27659574 C18.6861702,1.27659574 23.7234043,6.31382979 23.7234043,12.5 C23.7234043,18.6861702 18.6861702,23.7234043 12.5,23.7234043 L12.5,23.7234043 Z" id="Shape"></path>
                    </g>
                </g>
            </g>
        </g>
    </g>
</svg>