<?xml version="1.0" encoding="UTF-8" standalone="no"?>
<svg width="25px" height="20px" viewBox="0 0 25 20" version="1.1" xmlns="http://www.w3.org/2000/svg" xmlns:xlink="http://www.w3.org/1999/xlink">
    <!-- Generator: Sketch 49.3 (51167) - http://www.bohemiancoding.com/sketch -->
    <title>incoming-icon</title>
    <desc>Created with Sketch.</desc>
    <defs></defs>
    <g id="Page-1" stroke="none" stroke-width="1" fill="none" fill-rule="evenodd">
        <g id="Home" transform="translate(-26.000000, -629.000000)" fill="#A1A1A1" stroke="#A1A1A1" stroke-width="0.3">
            <g id="Bottom-Bar/Tab-Bar" transform="translate(0.000000, 618.000000)">
                <g id="Icons" transform="translate(25.000000, 7.000000)">
                    <g id="incoming-icon" transform="translate(2.000000, 4.000000)">
                        <path d="M19.4736842,0.263157895 L3.68421053,0.263157895 L0,7.63157895 L0,19.7368421 L23.1578947,19.7368421 L23.1578947,7.63157895 L19.4736842,0.263157895 L19.4736842,0.263157895 Z M22.1052632,18.6842105 L1.05263158,18.6842105 L1.05263158,9.21052632 L5.78947368,9.21052632 C6.28578947,11.9242105 8.74578947,13.9473684 11.5789474,13.9473684 C14.4121053,13.9473684 16.8721053,11.9242105 17.3684211,9.21052632 L22.1052632,9.21052632 L22.1052632,18.6842105 L22.1052632,18.6842105 Z M16.3157895,8.15789474 C16.3157895,10.7952632 14.1947368,12.8947368 11.5789474,12.8947368 C8.96315789,12.8947368 6.84210526,10.7952632 6.84210526,8.15789474 L1.05263158,8.15789474 L4.21052632,1.31578947 L18.9473684,1.31578947 L22.1052632,8.15789474 L16.3157895,8.15789474 L16.3157895,8.15789474 Z" id="Shape"></path>
                    </g>
                </g>
            </g>
        </g>
    </g>
</svg>