<?xml version="1.0" encoding="UTF-8" standalone="no"?>
<svg width="27px" height="27px" viewBox="0 0 27 27" version="1.1" xmlns="http://www.w3.org/2000/svg" xmlns:xlink="http://www.w3.org/1999/xlink">
    <!-- Generator: Sketch 49.3 (51167) - http://www.bohemiancoding.com/sketch -->
    <title>solved-icon</title>
    <desc>Created with Sketch.</desc>
    <defs></defs>
    <g id="Page-1" stroke="none" stroke-width="1" fill="none" fill-rule="evenodd">
        <g id="Home" transform="translate(-100.000000, -624.000000)" fill="#A1A1A1" fill-rule="nonzero" stroke="#A1A1A1" stroke-width="0.3">
            <g id="Bottom-Bar/Tab-Bar" transform="translate(0.000000, 618.000000)">
                <g id="Icons" transform="translate(25.000000, 7.000000)">
                    <g id="solved-icon" transform="translate(76.000000, 0.000000)">
                        <path d="M24.5647558,9.21252654 C23.9118896,8.6552017 23.0944798,8.35265393 22.2664544,8.35265393 L21.4278132,8.35265393 L18.4076433,8.35265393 L16.6878981,8.35265393 L16.6878981,4.32399151 C16.6878981,2.63078556 16.1942675,1.40997877 15.2176221,0.693418259 C13.6730361,-0.442462845 11.544586,0.205095541 11.4543524,0.236942675 C11.1889597,0.321868365 11.0084926,0.566029724 11.0084926,0.842038217 L11.0084926,5.34840764 C11.0084926,6.81868365 10.3078556,8.06602972 8.92250531,9.05859873 C7.88747346,9.80169851 6.83121019,10.1254777 6.71974522,10.1626327 L6.56581741,10.1997877 C6.33757962,9.81231423 5.91825902,9.5522293 5.43524416,9.5522293 L1.31104034,9.5522293 C0.589171975,9.5522293 0,10.1414013 0,10.8632696 L0,22.9864119 C0,23.7082803 0.589171975,24.2974522 1.31104034,24.2974522 L5.44585987,24.2974522 C5.8492569,24.2974522 6.21549894,24.1116773 6.45435244,23.8250531 C7.11783439,24.5309979 8.05732484,24.9715499 9.07643312,24.9715499 L12.57431,24.9715499 L12.9352442,24.9715499 L20.1061571,24.9715499 C22.5424628,24.9715499 24.0976645,23.6976645 24.373673,21.4683652 L25.8014862,12.6095541 C25.9978769,11.3356688 25.5254777,10.0299363 24.5647558,9.21252654 Z M5.47770701,22.9864119 C5.47770701,23.0076433 5.46178344,23.0235669 5.44055202,23.0235669 L1.31104034,23.0235669 C1.28980892,23.0235669 1.27388535,23.0076433 1.27388535,22.9864119 L1.27388535,10.8632696 C1.27388535,10.8420382 1.28980892,10.8261146 1.31104034,10.8261146 L5.44585987,10.8261146 C5.4670913,10.8261146 5.48301486,10.8420382 5.48301486,10.8632696 L5.48301486,22.9864119 L5.47770701,22.9864119 Z M24.5329087,12.4078556 L23.1104034,21.2825902 C23.1104034,21.2878981 23.1104034,21.2985138 23.1050955,21.3091295 C22.9087049,22.8961783 21.9002123,23.7029724 20.1008493,23.7029724 L12.9299363,23.7029724 L12.5690021,23.7029724 L9.07112527,23.7029724 C7.94055202,23.7029724 6.95859873,22.8590234 6.78343949,21.7443737 C6.77813163,21.7072187 6.76751592,21.6700637 6.75690021,21.6329087 L6.75690021,11.4630573 L7.0329087,11.3993631 C7.04352442,11.3993631 7.04883227,11.3940552 7.05944798,11.3940552 C7.11252654,11.3781316 8.37048832,11.0225053 9.63906582,10.1201699 C11.3747346,8.88874735 12.2876858,7.23800425 12.2876858,5.34840764 L12.2876858,1.35159236 C12.8397028,1.26135881 13.7845011,1.21358811 14.4692144,1.72314225 C15.0955414,2.18492569 15.4140127,3.06072187 15.4140127,4.32399151 L15.4140127,8.98428875 C15.4140127,9.33460722 15.7006369,9.62123142 16.0509554,9.62123142 L18.4076433,9.62123142 L21.4278132,9.62123142 L22.2664544,9.62123142 C22.7919321,9.62123142 23.3174098,9.81762208 23.7367304,10.1785563 C24.3630573,10.7146497 24.670913,11.5692144 24.5329087,12.4078556 Z" id="Shape"></path>
                    </g>
                </g>
            </g>
        </g>
    </g>
</svg>