<?xml version="1.0" encoding="UTF-8" standalone="no"?>
<svg width="22px" height="22px" viewBox="0 0 22 22" version="1.1" xmlns="http://www.w3.org/2000/svg" xmlns:xlink="http://www.w3.org/1999/xlink">
    <!-- Generator: Sketch 49.3 (51167) - http://www.bohemiancoding.com/sketch -->
    <title>Filters-icon</title>
    <desc>Created with Sketch.</desc>
    <defs></defs>
    <g id="Page-1" stroke="none" stroke-width="1" fill="none" fill-rule="evenodd">
        <g id="Home" transform="translate(-337.000000, -31.000000)" fill="#313A5A">
            <g id="Header">
                <g id="Filters-icon" transform="translate(337.000000, 31.000000)">
                    <path d="M21.0923878,0.000224489796 C20.6273571,0.000224489796 20.250551,0.377030612 20.250551,0.842061224 L20.250551,21.0921633 C20.250551,21.5571939 20.6273571,21.934 21.0923878,21.934 C21.5573061,21.934 21.9342245,21.5571939 21.9342245,21.0921633 L21.9342245,0.842061224 C21.9342245,0.377030612 21.5573061,0.000224489796 21.0923878,0.000224489796 L21.0923878,0.000224489796 Z" id="Shape"></path>
                    <path d="M0.841836735,0.000224489796 C0.376918367,0.000224489796 0,0.377030612 0,0.842061224 L0,21.0921633 C0,21.5571939 0.376918367,21.934 0.841836735,21.934 C1.3067551,21.934 1.68367347,21.5571939 1.68367347,21.0921633 L1.68367347,0.842061224 C1.68367347,0.377030612 1.3067551,0.000224489796 0.841836735,0.000224489796 L0.841836735,0.000224489796 Z" id="Shape"></path>
                    <path d="M10.1232551,4.0524898 L8.43396939,4.0524898 L8.43396939,0.842061224 C8.43396939,0.377030612 8.05705102,0.000224489796 7.59213265,0.000224489796 C7.12721429,0.000224489796 6.75029592,0.377030612 6.75029592,0.842061224 L6.75029592,4.0524898 L5.06089796,4.0524898 C4.59597959,4.0524898 4.21906122,4.42929592 4.21906122,4.89432653 L4.21906122,9.95702041 C4.21906122,10.422051 4.59597959,10.7988571 5.06089796,10.7988571 L6.75029592,10.7988571 L6.75029592,21.0922755 C6.75029592,21.5573061 7.12721429,21.9341122 7.59213265,21.9341122 C8.05705102,21.9341122 8.43396939,21.5573061 8.43396939,21.0922755 L8.43396939,10.7987449 L10.1233673,10.7987449 C10.5882857,10.7987449 10.9652041,10.4219388 10.9652041,9.95690816 L10.9652041,4.89432653 C10.9650918,4.42929592 10.5881735,4.0524898 10.1232551,4.0524898 L10.1232551,4.0524898 Z M9.28141837,9.11507143 L5.90273469,9.11507143 L5.90273469,5.73616327 L9.28153061,5.73616327 L9.28153061,9.11507143 L9.28141837,9.11507143 Z" id="Shape"></path>
                    <path d="M16.8733265,11.1354796 L15.1839286,11.1354796 L15.1839286,0.842061224 C15.1839286,0.377030612 14.8070102,0.000224489796 14.3420918,0.000224489796 C13.8771735,0.000224489796 13.5002551,0.377030612 13.5002551,0.842061224 L13.5002551,11.1354796 L11.8108571,11.1354796 C11.3459388,11.1354796 10.9690204,11.5122857 10.9690204,11.9773163 L10.9690204,17.0397857 C10.9690204,17.5048163 11.3459388,17.8816224 11.8108571,17.8816224 L13.5002551,17.8816224 L13.5002551,21.092051 C13.5002551,21.5570816 13.8771735,21.9338878 14.3420918,21.9338878 C14.8070102,21.9338878 15.1839286,21.5570816 15.1839286,21.092051 L15.1839286,17.8816224 L16.8733265,17.8816224 C17.3382449,17.8816224 17.7151633,17.5048163 17.7151633,17.0397857 L17.7151633,11.9773163 C17.7151633,11.5122857 17.3382449,11.1354796 16.8733265,11.1354796 L16.8733265,11.1354796 Z M16.0314898,16.197949 L12.6528061,16.197949 L12.6528061,12.8191531 L16.0314898,12.8191531 L16.0314898,16.197949 L16.0314898,16.197949 Z" id="Shape"></path>
                </g>
            </g>
        </g>
    </g>
</svg>