<?xml version="1.0" encoding="UTF-8" standalone="no"?>
<svg width="18px" height="24px" viewBox="0 0 18 24" version="1.1" xmlns="http://www.w3.org/2000/svg" xmlns:xlink="http://www.w3.org/1999/xlink">
    <!-- Generator: Sketch 49.3 (51167) - http://www.bohemiancoding.com/sketch -->
    <title>placeholder-outline</title>
    <desc>Created with Sketch.</desc>
    <defs></defs>
    <g id="Page-1" stroke="none" stroke-width="1" fill="none" fill-rule="evenodd">
        <g id="Home" transform="translate(-16.000000, -30.000000)" fill="#313A5A" fill-rule="nonzero">
            <g id="Header">
                <g id="placeholder-outline" transform="translate(16.000000, 30.000000)">
                    <g id="Group">
                        <path d="M0.139592654,10.2630651 C0.269769616,11.2782371 0.526958264,12.3513456 0.904026711,13.4525008 C1.42144908,14.9636194 2.15238731,16.4817496 3.07668781,17.9646611 C4.21602671,19.7927078 5.65546578,21.5747579 7.35501836,23.2612487 C7.80028047,23.7031452 8.39102504,23.9465509 9.01839065,23.9465509 C9.64575626,23.9465509 10.2364608,23.7031452 10.681803,23.2612487 C12.3813155,21.5747579 13.8207947,19.7927078 14.9600935,17.9647012 C15.8843539,16.4817896 16.6153322,14.9636995 17.1327546,13.4525409 C17.509823,12.3514257 17.7669716,11.2783172 17.8971486,10.2631052 C17.9865376,9.56622371 17.9866578,9.11643406 17.9827713,8.95768948 C17.9792855,7.75768948 17.7420902,6.59270785 17.2776361,5.4945576 C16.8260434,4.42689816 16.1799265,3.46838063 15.3571553,2.64564942 C14.534424,1.8229182 13.5759466,1.17680134 12.5082471,0.725208681 C11.4019232,0.257268781 10.2278063,0.020033389 9.01835058,0.020033389 C7.80893489,0.020033389 6.63477796,0.257308848 5.52849416,0.725208681 C4.46079466,1.17680134 3.5023172,1.8229182 2.67958598,2.64564942 C1.85681469,3.46838063 1.2107379,4.42689816 0.759145242,5.4945576 C0.294691152,6.59266778 0.0574958264,7.75772955 0.0540100167,8.95768948 C0.0500834725,9.11639399 0.0502437396,9.56618364 0.139592654,10.2630651 Z M9.47266778,22.0428982 C9.34689816,22.1676661 9.18262437,22.2300902 9.01835058,22.2300902 C8.85407679,22.2300902 8.68980301,22.1676661 8.56407346,22.0428982 C1.52602337,15.058778 1.77019032,8.98934224 1.77043072,8.98445409 L1.77043072,8.98441402 C1.77043072,4.98146244 5.01543907,1.73645409 9.01835058,1.73645409 C13.0212621,1.73645409 16.2662705,4.98146244 16.2662705,8.98437396 L16.2662705,8.98441402 C16.2664708,8.98934224 16.5106778,15.058778 9.47266778,22.0428982 Z" id="Shape"></path>
                        <path d="M9.01835058,23.9665843 C8.38565609,23.9665843 7.78994324,23.7211352 7.34087479,23.2754725 C5.64020033,21.5878598 4.19979967,19.8046077 3.05961937,17.9752788 C2.13463773,16.4912053 1.4029783,14.9717129 0.885035058,13.4589917 C0.507565943,12.3565943 0.250056761,11.2822037 0.119679466,10.2656294 C0.0303305509,9.56858765 0.0299699499,9.11839733 0.0339365609,8.95716861 C0.0374223706,7.75500501 0.275178631,6.5872187 0.740634391,5.48674457 C1.19326878,4.41664107 1.84082805,3.45595993 2.66536227,2.63146578 C3.48993656,1.80689149 4.4506177,1.15933222 5.52064107,0.706737896 C6.62948915,0.237796327 7.80629048,0 9.01835058,0 C10.2304908,0 11.4072521,0.237796327 12.51602,0.706777963 C13.5860835,1.15933222 14.5467245,1.80693155 15.3712988,2.63150584 C16.1958331,3.45604007 16.8433923,4.41668114 17.2960267,5.48678464 C17.7614825,6.58725876 17.9992788,7.75504508 18.0027646,8.95764942 C18.0067312,9.11863773 18.0063306,9.56926878 17.9169816,10.2656694 C17.7866043,11.2823639 17.5290952,12.3567546 17.151626,13.4590317 C16.6337629,14.9716327 15.9021035,16.4911252 14.9770417,17.9753189 C13.8369015,19.8046477 12.3965008,21.5878998 10.6958664,23.2754725 C10.2467179,23.7211352 9.65100501,23.9665843 9.01835058,23.9665843 Z M9.01835058,0.040066778 C7.81165943,0.040066778 6.64014691,0.276781302 5.53630718,0.743679466 C4.47105175,1.19423038 3.51465776,1.83890484 2.69376962,2.65983306 C1.87292154,3.48064107 1.22820701,4.43703506 0.777616027,5.50237062 C0.314283806,6.59791653 0.0775692821,7.76045409 0.0740834725,8.95772955 C0.0701168614,9.11847746 0.0704774624,9.56626377 0.159505843,10.2605409 C0.289522538,11.2744307 0.546390651,12.346177 0.923018364,13.44601 C1.44,14.9558865 2.17029716,16.4725743 3.09371619,17.9540835 C4.23221369,19.780808 5.67069115,21.561616 7.36916194,23.2470651 C7.81065776,23.6852354 8.39639399,23.9265175 9.01843072,23.9265175 C9.64042738,23.9265175 10.2261636,23.6852354 10.6676995,23.247025 C12.3661703,21.561616 13.8046077,19.7807679 14.9431452,17.9540434 C15.8666043,16.472414 16.5969015,14.9557262 17.1138431,13.4459699 C17.4903907,12.3462972 17.7472988,11.2745509 17.8773155,10.2605008 C17.9663439,9.56682471 17.9667045,9.11859766 17.962778,8.95813022 C17.9592922,7.76041402 17.7226177,6.59787646 17.2592053,5.50233055 C16.8086144,4.43699499 16.1638998,3.48064107 15.3430518,2.65979299 C14.5221636,1.83890484 13.5658097,1.19419032 12.5005543,0.743639399 C11.3965943,0.276781302 10.2250818,0.040066778 9.01835058,0.040066778 Z M9.01835058,22.2501235 C8.84169616,22.2501235 8.6753389,22.1815693 8.54996995,22.0571219 C1.54229048,15.1030918 1.74755259,9.04391319 1.7504374,8.98353255 C1.7504374,4.97689482 5.01083139,1.71646077 9.01839065,1.71646077 C13.0259499,1.71646077 16.2863439,4.97685476 16.2863439,8.98441402 C16.288828,9.04595659 16.33799,10.5375626 15.5271987,12.9047078 C15.0513255,14.2940234 14.3759199,15.6949182 13.5196928,17.0685275 C12.4498297,18.7848681 11.0929683,20.4633055 9.48685142,22.0571219 C9.36136227,22.1815693 9.19496494,22.2501235 9.01835058,22.2501235 Z M9.01835058,1.75648748 C5.03286811,1.75648748 1.79046411,4.99893155 1.79046411,8.98441402 C1.78978297,9.00040067 1.73609349,10.5250217 2.54900835,12.8962538 C3.02416027,14.2822037 3.69836394,15.679813 4.55290818,17.0502571 C5.62084808,18.7629516 6.97514524,20.4379432 8.57817696,22.0287145 C8.69605342,22.1456694 8.85235392,22.2100568 9.01835058,22.2100568 C9.18434725,22.2100568 9.34068781,22.1456694 9.45852421,22.0287145 C11.0627579,20.4367412 12.4178564,18.7604674 13.486197,17.0463706 C14.3408214,15.6751653 15.0149048,14.2768748 15.4897362,12.8902838 C16.136374,11.0018564 16.2673122,9.51013022 16.2462371,8.98521536 C16.2462371,4.99897162 13.0038331,1.75648748 9.01835058,1.75648748 Z" id="Shape"></path>
                    </g>
                    <g id="Group" transform="translate(3.365609, 3.085142)">
                        <path d="M9.62672454,1.69398331 C9.11114524,1.17840401 8.51026377,0.773409015 7.84086811,0.490297162 C7.14683139,0.196767947 6.41068447,0.0479198664 5.65274124,0.0479198664 C4.894798,0.0479198664 4.15861102,0.196767947 3.46465442,0.490297162 C2.7952187,0.773449082 2.1943773,1.17844407 1.678798,1.69398331 C1.1632187,2.2095626 0.758223706,2.81044407 0.475071786,3.47983973 C0.181502504,4.17379633 0.0326944908,4.90998331 0.0326944908,5.66792654 C0.0326944908,6.42586978 0.181502504,7.16205676 0.475071786,7.85601336 C0.758223706,8.52544908 1.16317863,9.12633055 1.678798,9.64186978 C2.1943773,10.1574491 2.7952187,10.5624441 3.46465442,10.845596 C4.15865109,11.1390851 4.894798,11.2879332 5.65274124,11.2879332 C6.41068447,11.2879332 7.14687145,11.1390851 7.84082805,10.845596 C8.51022371,10.5624441 9.11110518,10.1574491 9.62668447,9.64186978 C10.1422237,9.12633055 10.5472588,8.52544908 10.8304107,7.85601336 C11.1239399,7.16205676 11.2727479,6.42586978 11.2727479,5.66792654 C11.2727479,4.90998331 11.1239399,4.17379633 10.8304107,3.47983973 C10.5472588,2.81044407 10.1423038,2.2095626 9.62672454,1.69398331 Z M5.65274124,9.57155259 C3.49686811,9.57155259 1.74915526,7.8238798 1.74915526,5.66796661 C1.74915526,3.51205342 3.49686811,1.7644207 5.65274124,1.7644207 C7.80861436,1.7644207 9.55632721,3.51209349 9.55632721,5.66800668 C9.55632721,7.82391987 7.80861436,9.57155259 5.65274124,9.57155259 Z" id="Shape"></path>
                        <path d="M5.65274124,11.3080067 C4.89215359,11.3080067 4.15336227,11.1586377 3.4568414,10.8641068 C2.7849616,10.5798731 2.18199666,10.1734758 1.66465442,9.65609349 C1.14731219,9.13883139 0.740874791,8.53582638 0.456641068,7.86390651 C0.162070117,7.16754591 0.0127011686,6.42875459 0.0127011686,5.66800668 C0.0127011686,4.90725876 0.162070117,4.16850751 0.456641068,3.47210684 C0.740834725,2.80022705 1.14727212,2.1972621 1.66465442,1.6798798 C2.18203673,1.16245743 2.78504174,0.7560601 3.4568414,0.471906511 C4.1533222,0.177335559 4.89211352,0.027966611 5.65274124,0.027966611 C6.41328881,0.027966611 7.1521202,0.177335559 7.84864107,0.471906511 C8.52052087,0.756100167 9.12348581,1.1624975 9.64086811,1.6798798 C10.1582504,2.1972621 10.5646878,2.80022705 10.8488815,3.47210684 C11.1434524,4.16850751 11.2927813,4.90729883 11.2927813,5.66800668 C11.2927813,6.42871452 11.1434124,7.16750584 10.8488815,7.86390651 C10.5646477,8.53574624 10.1582504,9.13871119 9.64086811,9.65609349 C9.12352588,10.1734357 8.52052087,10.5799132 7.84864107,10.8641068 C7.15216027,11.1586377 6.41332888,11.3080067 5.65274124,11.3080067 Z M5.65274124,0.0679532554 C4.89752254,0.0679532554 4.1639399,0.216240401 3.47242738,0.50872788 C2.80539566,0.79087813 2.2066778,1.19443072 1.69294157,1.70816694 C1.17924541,2.22186311 0.775692821,2.82058097 0.493502504,3.48769282 C0.201015025,4.17912521 0.0527278798,4.91266778 0.0527278798,5.66800668 C0.0527278798,6.42334558 0.201015025,7.15688815 0.493502504,7.84828047 C0.775692821,8.51543239 1.17928548,9.11415025 1.69294157,9.62776628 C2.20663773,10.1414624 2.80531553,10.5450551 3.47242738,10.8272053 C4.16397997,11.1196928 4.89752254,11.26798 5.65274124,11.26798 C6.40795993,11.26798 7.1415025,11.1196928 7.83305509,10.8272053 C8.50012688,10.545015 9.09884474,10.1415025 9.6125409,9.62776628 C10.1262371,9.11403005 10.5298297,8.51535225 10.81198,7.84828047 C11.1044674,7.15688815 11.2527546,6.42330551 11.2527546,5.66800668 C11.2527546,4.91270785 11.1044674,4.17912521 10.81198,3.48769282 C10.5298297,2.82062104 10.1262771,2.22190317 9.6125409,1.70816694 C9.09880467,1.19443072 8.50008681,0.79087813 7.83305509,0.50872788 C7.14146244,0.216240401 6.40795993,0.0679532554 5.65274124,0.0679532554 Z M5.65274124,9.59158598 C3.48925543,9.59158598 1.72912187,7.83145242 1.72912187,5.66796661 C1.72912187,3.5044808 3.48925543,1.74438731 5.65274124,1.74438731 C7.81622705,1.74438731 9.5763606,3.50452087 9.5763606,5.66800668 C9.5763606,7.83145242 7.81622705,9.59158598 5.65274124,9.59158598 Z M5.65274124,1.78445409 C3.51133222,1.78445409 1.76918865,3.52659766 1.76918865,5.66796661 C1.76918865,7.80937563 3.51133222,9.5515192 5.65274124,9.5515192 C7.79411018,9.5515192 9.53629382,7.80937563 9.53629382,5.66800668 C9.53629382,3.52659766 7.79411018,1.78445409 5.65274124,1.78445409 Z" id="Shape"></path>
                    </g>
                </g>
            </g>
        </g>
    </g>
</svg>