<?xml version="1.0" encoding="UTF-8" standalone="no"?>
<svg width="27px" height="27px" viewBox="0 0 27 27" version="1.1" xmlns="http://www.w3.org/2000/svg" xmlns:xlink="http://www.w3.org/1999/xlink">
    <!-- Generator: Sketch 49.3 (51167) - http://www.bohemiancoding.com/sketch -->
    <title>search-icon</title>
    <desc>Created with Sketch.</desc>
    <defs>
        <linearGradient x1="50.0001905%" y1="-3.4931298e-05%" x2="50.0001905%" y2="99.999926%" id="linearGradient-1">
            <stop stop-color="#48798E" offset="0%"></stop>
            <stop stop-color="#EA80FC" offset="100%"></stop>
        </linearGradient>
        <linearGradient x1="0.00021008209%" y1="49.9999455%" x2="100.000171%" y2="49.9999455%" id="linearGradient-2">
            <stop stop-color="#80D8FF" offset="0%"></stop>
            <stop stop-color="#9839A8" offset="100%"></stop>
        </linearGradient>
    </defs>
    <g id="Page-1" stroke="none" stroke-width="1" fill="none" fill-rule="evenodd">
        <g id="Home" transform="translate(-248.000000, -625.000000)" fill="url(#linearGradient-1)" fill-rule="nonzero" stroke="url(#linearGradient-2)" stroke-width="0.6">
            <g id="Bottom-Bar/Tab-Bar" transform="translate(0.000000, 618.000000)">
                <g id="Icons" transform="translate(25.000000, 7.000000)">
                    <g id="search-icon" transform="translate(224.000000, 1.000000)">
                        <path d="M24.7230424,23.6017129 L18.2788744,17.260522 C19.9663948,15.4270799 21.0032626,13.0023246 21.0032626,10.3341354 C21.002447,4.62638662 16.3011419,0 10.5013458,0 C4.70154976,0 0.000244698206,4.62638662 0.000244698206,10.3341354 C0.000244698206,16.0418842 4.70154976,20.6682708 10.5013458,20.6682708 C13.0072594,20.6682708 15.3056281,19.801509 17.1109706,18.360522 L23.5801387,24.7267129 C23.8953507,25.0372349 24.4070962,25.0372349 24.7223083,24.7267129 C25.0382545,24.4162316 25.0382545,23.9122349 24.7230424,23.6017129 Z M10.5013458,19.0783034 C5.59408646,19.0783034 1.61598695,15.1634176 1.61598695,10.3341354 C1.61598695,5.50485318 5.59408646,1.58996737 10.5013458,1.58996737 C15.408646,1.58996737 19.3867047,5.50485318 19.3867047,10.3341354 C19.3867047,15.1634176 15.408646,19.0783034 10.5013458,19.0783034 Z" id="Shape"></path>
                    </g>
                </g>
            </g>
        </g>
    </g>
</svg>