<?xml version="1.0" encoding="UTF-8" standalone="no"?>
<svg width="27px" height="27px" viewBox="0 0 27 27" version="1.1" xmlns="http://www.w3.org/2000/svg" xmlns:xlink="http://www.w3.org/1999/xlink">
    <!-- Generator: Sketch 49.3 (51167) - http://www.bohemiancoding.com/sketch -->
    <title>user-icon</title>
    <desc>Created with Sketch.</desc>
    <defs>
        <linearGradient x1="50.0001905%" y1="-3.4931298e-05%" x2="50.0001905%" y2="99.999926%" id="linearGradient-1">
            <stop stop-color="#48798E" offset="0%"></stop>
            <stop stop-color="#EA80FC" offset="100%"></stop>
        </linearGradient>
        <linearGradient x1="0.00021008209%" y1="49.9999455%" x2="100.000171%" y2="49.9999455%" id="linearGradient-2">
            <stop stop-color="#80D8FF" offset="0%"></stop>
            <stop stop-color="#9839A8" offset="100%"></stop>
        </linearGradient>
    </defs>
    <g id="Page-1" stroke="none" stroke-width="1" fill="none" fill-rule="evenodd">
        <g id="Home" transform="translate(-323.000000, -624.000000)" fill="url(#linearGradient-1)" stroke="url(#linearGradient-2)" stroke-width="0.6">
            <g id="Bottom-Bar/Tab-Bar" transform="translate(0.000000, 618.000000)">
                <g id="Icons" transform="translate(25.000000, 7.000000)">
                    <g id="user-icon" transform="translate(299.000000, 0.000000)">
                        <path d="M21.2532881,20.0415449 C18.7846033,19.4622129 17.438048,18.5436326 16.7438935,17.8807933 C16.2324113,17.3954071 15.997547,16.9674322 15.8931628,16.7482255 C16.0132046,16.6386221 16.1332463,16.5185804 16.2428497,16.3933194 C18.3200939,14.0551148 17.9651879,10.0258873 17.9286534,9.665762 C17.7929541,6.88392484 16.5142484,5.5217119 15.4599687,4.86931106 C14.2647704,4.12818372 13.0017223,4.04989562 12.5111169,4.04989562 L12.3910752,4.04989562 L12.2710334,4.04989562 C11.7856472,4.04989562 10.51738,4.12818372 9.32218163,4.86931106 C8.26790188,5.5217119 6.98397704,6.88392484 6.85349687,9.665762 C6.81696242,10.0311065 6.46205637,14.0551148 8.53930063,16.3933194 C8.70631524,16.5864301 8.88898747,16.7586639 9.08209812,16.9152401 C8.92030271,17.3849687 8.06957203,18.8515658 3.71153445,20.0363257 C3.49754697,20.093737 3.33575157,20.2555324 3.27312109,20.4695198 C3.21049061,20.6835073 3.26790188,20.9079332 3.41403967,21.0697286 L3.41925887,21.0749478 C4.57792276,22.2962422 5.9401357,23.251357 7.46936326,23.9246347 C9.05600209,24.6187891 10.7470251,24.9736952 12.4902401,24.9736952 C14.2334551,24.9736952 15.9244781,24.6240084 17.5058977,23.9246347 C19.0351253,23.251357 20.3973382,22.2962422 21.5560021,21.080167 C21.7125783,20.9183716 21.7647704,20.6835073 21.7021399,20.4695198 C21.6447286,20.2555324 21.4672756,20.093737 21.2532881,20.0415449 L21.2532881,20.0415449 Z M8.10088727,9.77536534 C8.10088727,9.76492693 8.10088727,9.74926931 8.10610647,9.7388309 C8.29399791,5.62087683 11.3420146,5.30250522 12.2762526,5.30250522 L12.3701983,5.30250522 L12.4171712,5.30250522 L12.5111169,5.30250522 C13.4401357,5.30250522 16.4881524,5.62087683 16.681263,9.7388309 C16.681263,9.74926931 16.681263,9.76492693 16.6864823,9.77536534 C16.6917015,9.81189979 17.0779228,13.5697286 15.3086117,15.5582463 C14.5987996,16.356785 13.6541232,16.7482255 12.4223904,16.7638831 L12.3962944,16.7638831 C12.3962944,16.7638831 12.3962944,16.7638831 12.3910752,16.7638831 C12.3858559,16.7638831 12.3910752,16.7638831 12.3858559,16.7638831 L12.3597599,16.7638831 C11.1280271,16.7534447 10.1833507,16.356785 9.47353862,15.5634656 C7.71466597,13.580167 8.09566806,9.81189979 8.10088727,9.77536534 L8.10088727,9.77536534 Z M12.4954593,23.7210856 C9.72927975,23.7210856 7.13533403,22.7398747 5.0841858,20.9392484 C8.56017745,19.817119 9.75537578,18.4549061 10.1624739,17.5832985 C10.7992171,17.8599165 11.5142484,18.0060543 12.3075678,18.0217119 L12.3910752,18.0217119 L12.4223904,18.0217119 L12.4745825,18.0217119 C13.3670668,18.0060543 14.1603862,17.823382 14.8545407,17.4736952 C15.3086117,18.3244259 16.5768789,19.9475992 19.8754175,20.9705637 C17.8294885,22.7503132 15.2459812,23.7210856 12.4954593,23.7210856 L12.4954593,23.7210856 Z" id="Shape"></path>
                        <path d="M21.3404255,3.65957447 C18.9787234,1.29787234 15.8404255,0 12.5,0 C9.15957447,0 6.0212766,1.29787234 3.65957447,3.65957447 C1.29787234,6.0212766 0,9.15957447 0,12.5 C0,15.8404255 1.29787234,18.9787234 3.65957447,21.3404255 C6.0212766,23.7021277 9.15957447,25 12.5,25 C15.8404255,25 18.9787234,23.7021277 21.3404255,21.3404255 C23.7021277,18.9787234 25,15.8404255 25,12.5 C25,9.15957447 23.7021277,6.0212766 21.3404255,3.65957447 L21.3404255,3.65957447 Z M12.5,23.7234043 C6.31382979,23.7234043 1.27659574,18.6861702 1.27659574,12.5 C1.27659574,6.31382979 6.31382979,1.27659574 12.5,1.27659574 C18.6861702,1.27659574 23.7234043,6.31382979 23.7234043,12.5 C23.7234043,18.6861702 18.6861702,23.7234043 12.5,23.7234043 L12.5,23.7234043 Z" id="Shape"></path>
                    </g>
                </g>
            </g>
        </g>
    </g>
</svg>